<svg width="16" height="16" viewBox="0 0 16 16" fill="none" xmlns="http://www.w3.org/2000/svg">
<path d="M8.3608 0.03125C10.0683 0.506151 11.624 1.7029 12.2691 3.1656C13.2556 5.5401 13.028 8.54148 11.9466 10.3271C11.0359 11.7898 9.63194 12.5686 8.0193 12.5496C5.51497 12.5306 3.48494 10.5361 3.46597 8.02858C3.46597 5.52111 5.43908 3.45054 8.0193 3.45054C8.43669 3.45054 9.03851 3.50842 9.72151 3.79336C9.72151 3.79336 9.23049 3.50253 7.96943 3.30717C4.34573 2.83226 0.0699379 5.5781 1.05649 11.9038C2.42249 14.3353 5.04066 15.9879 8.0193 15.9689C12.4019 15.9499 15.9876 12.3597 15.9687 7.9526C15.9687 3.73548 12.5347 0.145226 8.3608 0.03125Z" fill="url(#paint0_linear)"/>
<path d="M11.3394 3.3934C10.7322 2.12067 9.48007 1.11387 7.94332 0.714957C7.60182 0.619977 7.24135 0.581984 6.84293 0.562988C6.25479 0.562988 5.68562 0.638975 5.09749 0.790943C3.63662 1.22785 2.61212 2.08267 2.00501 2.74753C1.22715 3.64035 0.714898 4.57115 0.411342 5.50196C0.411342 5.52096 0.39237 5.53995 0.39237 5.57795C0.373398 5.65393 0.297509 5.88188 0.297509 5.93887C0.278537 5.97686 0.278537 6.03385 0.259565 6.07184C0.240592 6.14783 0.22162 6.22381 0.202648 6.2998C0.202648 6.31879 0.202648 6.33779 0.183676 6.35678C-0.309603 8.80727 0.509852 11.0063 1.00313 11.8232C1.12651 12.0275 1.22783 12.1979 1.32936 12.3543C0.210002 6.27559 3.42793 3.37441 7.08957 3.29842C9.00577 3.26043 10.922 4.03927 11.8516 5.59694C11.7947 4.74212 11.7378 4.26722 11.3394 3.3934Z" fill="url(#paint1_linear)"/>
<defs>
<linearGradient id="paint0_linear" x1="11.3669" y1="-4.11328" x2="-3.13609" y2="3.70378" gradientUnits="userSpaceOnUse">
<stop stop-color="#FF7BFF"/>
<stop offset="0.350158" stop-color="#AA00FF"/>
<stop offset="0.998876" stop-color="#8800CC"/>
</linearGradient>
<linearGradient id="paint1_linear" x1="4.3172" y1="-1.76046" x2="13.2372" y2="5.86589" gradientUnits="userSpaceOnUse">
<stop offset="0.0354358" stop-color="#FF7BFF"/>
<stop offset="0.576537" stop-color="#8800CC"/>
<stop offset="1" stop-color="#311B92"/>
</linearGradient>
</defs>
</svg>
